<svg id="Layer_1" data-name="Layer 1" xmlns="http://www.w3.org/2000/svg" viewBox="0 0 230.59 68.9"><defs><style>.cls-1{fill:#fff;}.cls-2{fill:#58595b;}.cls-3{fill:#e5b26e;}.cls-4{fill:#f2d5b1;}</style></defs><path class="cls-1" d="M-82.79,206.26" transform="translate(-8.87 -6.42)"/><path class="cls-2" d="M19.22,75.05a.18.18,0,0,1-.09.16.32.32,0,0,1-.2.07.33.33,0,0,1-.32-.19l-1.24-2.5H11.26L10,75.09a.32.32,0,0,1-.3.19.35.35,0,0,1-.26-.1.19.19,0,0,1,0-.24l4.53-9.06a.35.35,0,0,1,.36-.22.44.44,0,0,1,.23.06.36.36,0,0,1,.14.16l4.52,9.06A.36.36,0,0,1,19.22,75.05Zm-7.7-3h5.57L14.3,66.47Z" transform="translate(-8.87 -6.42)"/><path class="cls-2" d="M31.17,75a.2.2,0,0,1-.08.17.3.3,0,0,1-.21.08.33.33,0,0,1-.26-.14l-2.08-3a2.57,2.57,0,0,0-1-.91A3.4,3.4,0,0,0,26.15,71H23.86v4a.29.29,0,0,1-.09.22.28.28,0,0,1-.22.09.32.32,0,0,1-.24-.09.31.31,0,0,1-.08-.22V66a.28.28,0,0,1,.11-.21.44.44,0,0,1,.27-.09h3.78a4.24,4.24,0,0,1,2.58.67,2.25,2.25,0,0,1,.91,2,2.2,2.2,0,0,1-.8,1.81,3.87,3.87,0,0,1-2.26.75,1.92,1.92,0,0,1,.65.37,4.2,4.2,0,0,1,.61.68l2.05,2.92A.27.27,0,0,1,31.17,75Zm-3.76-4.55c1.87,0,2.8-.71,2.8-2.13a1.84,1.84,0,0,0-.69-1.57,3.54,3.54,0,0,0-2.11-.52H23.87v4.22Z" transform="translate(-8.87 -6.42)"/><path class="cls-2" d="M38,75.19A.29.29,0,0,1,38,75V66.25H34.21a.26.26,0,0,1-.2-.07.22.22,0,0,1-.08-.18.26.26,0,0,1,.08-.19.3.3,0,0,1,.2-.07h8.12a.35.35,0,0,1,.2.07.22.22,0,0,1,.1.19.19.19,0,0,1-.1.18.29.29,0,0,1-.2.07H38.6V75a.33.33,0,0,1-.08.22.37.37,0,0,1-.48,0Z" transform="translate(-8.87 -6.42)"/><path class="cls-2" d="M52.08,75.11a.26.26,0,0,1-.12-.2V66a.26.26,0,0,1,.12-.21.42.42,0,0,1,.27-.09h2.94A5.71,5.71,0,0,1,59.19,67a5.15,5.15,0,0,1,0,7,5.67,5.67,0,0,1-3.9,1.23H52.35A.38.38,0,0,1,52.08,75.11Zm6.67-1.5a4.17,4.17,0,0,0,1.13-3.14q0-4.22-4.61-4.22H52.59V74.7h2.68A4.82,4.82,0,0,0,58.75,73.61Z" transform="translate(-8.87 -6.42)"/><path class="cls-2" d="M65.14,75.19a.29.29,0,0,1-.09-.22V66a.29.29,0,0,1,.09-.22.29.29,0,0,1,.23-.09.3.3,0,0,1,.23.09.33.33,0,0,1,.08.22v9a.33.33,0,0,1-.08.22.3.3,0,0,1-.23.09A.29.29,0,0,1,65.14,75.19Z" transform="translate(-8.87 -6.42)"/><path class="cls-2" d="M78.56,75a.21.21,0,0,1-.09.17.29.29,0,0,1-.21.08.34.34,0,0,1-.26-.14l-2.08-3a2.57,2.57,0,0,0-1-.91A3.4,3.4,0,0,0,73.53,71H71.24v4a.29.29,0,0,1-.09.22.28.28,0,0,1-.22.09.32.32,0,0,1-.24-.09.31.31,0,0,1-.08-.22V66a.26.26,0,0,1,.12-.21.39.39,0,0,1,.26-.09h3.78a4.24,4.24,0,0,1,2.58.67,2.25,2.25,0,0,1,.91,2,2.2,2.2,0,0,1-.8,1.81,3.85,3.85,0,0,1-2.26.75,1.92,1.92,0,0,1,.65.37,4.2,4.2,0,0,1,.61.68l2.05,2.92A.3.3,0,0,1,78.56,75Zm-3.77-4.55c1.87,0,2.8-.71,2.8-2.13a1.84,1.84,0,0,0-.69-1.57,3.54,3.54,0,0,0-2.11-.52H71.25v4.22Z" transform="translate(-8.87 -6.42)"/><path class="cls-2" d="M83.08,75.11a.26.26,0,0,1-.12-.2V66a.26.26,0,0,1,.12-.21.42.42,0,0,1,.27-.09h5.89a.32.32,0,0,1,.2.07.28.28,0,0,1,.08.2.25.25,0,0,1-.08.18.27.27,0,0,1-.2.07H83.61v3.89h5.32a.3.3,0,0,1,.2.06.26.26,0,0,1,.08.19.28.28,0,0,1-.08.2.3.3,0,0,1-.2.07H83.61v4h5.63a.32.32,0,0,1,.2.07.26.26,0,0,1,.08.19.24.24,0,0,1-.08.19.28.28,0,0,1-.2.08H83.35A.38.38,0,0,1,83.08,75.11Z" transform="translate(-8.87 -6.42)"/><path class="cls-2" d="M95.49,74.73a4,4,0,0,1-1.67-1.68,5.4,5.4,0,0,1-.58-2.58,5.34,5.34,0,0,1,.58-2.58,4,4,0,0,1,1.67-1.67,5.33,5.33,0,0,1,2.57-.59,6,6,0,0,1,2,.33,4.45,4.45,0,0,1,1.56.88.4.4,0,0,1,.16.32.29.29,0,0,1-.06.19.2.2,0,0,1-.16.07.47.47,0,0,1-.26-.11,6,6,0,0,0-1.58-.88A5,5,0,0,0,98,66.18a4,4,0,0,0-3,1.13,5.18,5.18,0,0,0,0,6.33,4,4,0,0,0,3,1.12,5.21,5.21,0,0,0,1.67-.24,5.92,5.92,0,0,0,1.57-.88.62.62,0,0,1,.26-.11.2.2,0,0,1,.16.07.28.28,0,0,1,.06.18.41.41,0,0,1-.16.33A4.45,4.45,0,0,1,100,75a6,6,0,0,1-2,.33A5.33,5.33,0,0,1,95.49,74.73Z" transform="translate(-8.87 -6.42)"/><path class="cls-2" d="M108.64,75.19a.33.33,0,0,1-.08-.22V66.25h-3.75a.27.27,0,0,1-.2-.07.22.22,0,0,1-.08-.18.26.26,0,0,1,.08-.19.32.32,0,0,1,.2-.07h8.13a.37.37,0,0,1,.2.07.23.23,0,0,1,.09.19.2.2,0,0,1-.09.18.31.31,0,0,1-.2.07H109.2V75a.29.29,0,0,1-.08.22.37.37,0,0,1-.48,0Z" transform="translate(-8.87 -6.42)"/><path class="cls-2" d="M116.9,75.19a.29.29,0,0,1-.09-.22V66a.29.29,0,0,1,.09-.22.29.29,0,0,1,.23-.09.3.3,0,0,1,.23.09.33.33,0,0,1,.08.22v9a.33.33,0,0,1-.08.22.3.3,0,0,1-.23.09A.29.29,0,0,1,116.9,75.19Z" transform="translate(-8.87 -6.42)"/><path class="cls-2" d="M124.14,74.73a4,4,0,0,1-1.64-1.68,6.05,6.05,0,0,1,0-5.15,4,4,0,0,1,1.63-1.68,5.16,5.16,0,0,1,2.52-.59,5.22,5.22,0,0,1,2.53.59,3.87,3.87,0,0,1,1.63,1.67,5.46,5.46,0,0,1,.57,2.58,5.52,5.52,0,0,1-.57,2.58,4,4,0,0,1-1.64,1.68,5.16,5.16,0,0,1-2.52.59A5.11,5.11,0,0,1,124.14,74.73Zm5.49-1.09a4.49,4.49,0,0,0,1.05-3.17,4.43,4.43,0,0,0-1.05-3.16,4.49,4.49,0,0,0-6,0,4.44,4.44,0,0,0-1.06,3.16,4.5,4.5,0,0,0,1.06,3.17,3.86,3.86,0,0,0,3,1.12A3.91,3.91,0,0,0,129.63,73.64Z" transform="translate(-8.87 -6.42)"/><path class="cls-2" d="M144.12,66v9a.33.33,0,0,1-.08.22.32.32,0,0,1-.24.09.29.29,0,0,1-.17,0,.52.52,0,0,1-.13-.13l-7.05-8.41V75a.33.33,0,0,1-.08.22.29.29,0,0,1-.22.09c-.2,0-.29-.11-.29-.31V66a.29.29,0,0,1,.08-.22.33.33,0,0,1,.25-.09.31.31,0,0,1,.16,0,.52.52,0,0,1,.15.13l7,8.4V66a.29.29,0,0,1,.08-.22.29.29,0,0,1,.22-.09C144,65.67,144.12,65.78,144.12,66Z" transform="translate(-8.87 -6.42)"/><path class="cls-2" d="M161.57,71.21a.24.24,0,0,1,.1.18.28.28,0,0,1-.1.21.41.41,0,0,1-.24.08h-3.11v2.71a.28.28,0,0,1-.08.2.32.32,0,0,1-.42,0,.28.28,0,0,1-.08-.2V71.68h-3.11a.32.32,0,0,1-.23-.09.25.25,0,0,1-.1-.2.21.21,0,0,1,.1-.18.35.35,0,0,1,.23-.07h3.11V68.41a.28.28,0,0,1,.08-.2.29.29,0,0,1,.42,0,.28.28,0,0,1,.08.2v2.73h3.11A.4.4,0,0,1,161.57,71.21Z" transform="translate(-8.87 -6.42)"/><path class="cls-2" d="M171.85,75.11a.27.27,0,0,1-.11-.2V66a.28.28,0,0,1,.11-.21.44.44,0,0,1,.27-.09h2.94A5.68,5.68,0,0,1,179,67a5.15,5.15,0,0,1,0,7,5.63,5.63,0,0,1-3.9,1.23h-2.94A.39.39,0,0,1,171.85,75.11Zm6.68-1.5a4.17,4.17,0,0,0,1.12-3.14q0-4.22-4.6-4.22h-2.68V74.7h2.68A4.82,4.82,0,0,0,178.53,73.61Z" transform="translate(-8.87 -6.42)"/><path class="cls-2" d="M184.94,75.11a.27.27,0,0,1-.11-.2V66a.28.28,0,0,1,.11-.21.44.44,0,0,1,.27-.09h5.89a.3.3,0,0,1,.2.07.28.28,0,0,1,.08.2.25.25,0,0,1-.08.18.26.26,0,0,1-.2.07h-5.63v3.89h5.33a.32.32,0,0,1,.2.06.25.25,0,0,1,.07.19.27.27,0,0,1-.07.2.32.32,0,0,1-.2.07h-5.33v4h5.63a.3.3,0,0,1,.2.07.26.26,0,0,1,.08.19.24.24,0,0,1-.08.19.26.26,0,0,1-.2.08h-5.89A.39.39,0,0,1,184.94,75.11Z" transform="translate(-8.87 -6.42)"/><path class="cls-2" d="M196.52,75a4.43,4.43,0,0,1-1.65-.88.42.42,0,0,1-.14-.33.28.28,0,0,1,.06-.18.2.2,0,0,1,.16-.07.56.56,0,0,1,.27.11,5.66,5.66,0,0,0,3.46,1.12,4.08,4.08,0,0,0,2.29-.53,1.69,1.69,0,0,0,.81-1.51,1.17,1.17,0,0,0-.4-.91,2.72,2.72,0,0,0-1-.53c-.39-.12-.91-.25-1.56-.38-.89-.19-1.57-.36-2-.5a3.21,3.21,0,0,1-1.26-.73,1.82,1.82,0,0,1-.56-1.42,2.14,2.14,0,0,1,.46-1.37,3,3,0,0,1,1.32-.92,5.39,5.39,0,0,1,2-.33,6,6,0,0,1,2,.33,3.94,3.94,0,0,1,1.52.88.43.43,0,0,1,.16.32.29.29,0,0,1-.07.19.21.21,0,0,1-.16.07.4.4,0,0,1-.26-.11,5.83,5.83,0,0,0-1.56-.89,5,5,0,0,0-1.63-.24,4,4,0,0,0-2.26.55,1.78,1.78,0,0,0-.81,1.55,1.35,1.35,0,0,0,.36,1,2.56,2.56,0,0,0,.91.59,11.56,11.56,0,0,0,1.41.4l.65.13a17,17,0,0,1,1.8.44,3.13,3.13,0,0,1,1.17.69,1.7,1.7,0,0,1,.48,1.26,2,2,0,0,1-.47,1.33,2.93,2.93,0,0,1-1.32.9,5.31,5.31,0,0,1-1.95.33A7.16,7.16,0,0,1,196.52,75Z" transform="translate(-8.87 -6.42)"/><path class="cls-2" d="M206.71,75.19a.33.33,0,0,1-.08-.22V66a.33.33,0,0,1,.08-.22.32.32,0,0,1,.24-.09.28.28,0,0,1,.22.09.29.29,0,0,1,.09.22v9a.29.29,0,0,1-.09.22.28.28,0,0,1-.22.09A.32.32,0,0,1,206.71,75.19Z" transform="translate(-8.87 -6.42)"/><path class="cls-2" d="M220.25,70.51a.29.29,0,0,1,.08.21v3.75a.24.24,0,0,1-.05.13.49.49,0,0,1-.13.12,6.68,6.68,0,0,1-1.56.43,10.83,10.83,0,0,1-1.9.17,5.62,5.62,0,0,1-2.66-.58,3.9,3.9,0,0,1-1.7-1.66,5.47,5.47,0,0,1-.59-2.61,5.34,5.34,0,0,1,.58-2.58A4,4,0,0,1,214,66.22a5.4,5.4,0,0,1,2.58-.59,6.11,6.11,0,0,1,2,.33,4.23,4.23,0,0,1,1.55.88.54.54,0,0,1,.15.32.29.29,0,0,1-.06.19.21.21,0,0,1-.17.07.45.45,0,0,1-.26-.11,6,6,0,0,0-1.58-.88,4.85,4.85,0,0,0-1.65-.25,4,4,0,0,0-3.06,1.13,4.4,4.4,0,0,0-1.07,3.16,4.35,4.35,0,0,0,1.09,3.19,4.19,4.19,0,0,0,3.15,1.12,9.81,9.81,0,0,0,1.64-.14,6.75,6.75,0,0,0,1.4-.37V71H217a.4.4,0,0,1-.26-.08.26.26,0,0,1-.09-.19.25.25,0,0,1,.09-.2.47.47,0,0,1,.26-.07h3A.39.39,0,0,1,220.25,70.51Z" transform="translate(-8.87 -6.42)"/><path class="cls-2" d="M233.4,66v9a.33.33,0,0,1-.08.22.32.32,0,0,1-.24.09.29.29,0,0,1-.17,0,.52.52,0,0,1-.13-.13l-7.05-8.41V75a.29.29,0,0,1-.08.22.29.29,0,0,1-.22.09c-.2,0-.29-.11-.29-.31V66a.29.29,0,0,1,.08-.22.33.33,0,0,1,.25-.09.31.31,0,0,1,.16,0,.52.52,0,0,1,.15.13l7,8.4V66a.29.29,0,0,1,.08-.22.29.29,0,0,1,.22-.09C233.31,65.67,233.4,65.78,233.4,66Z" transform="translate(-8.87 -6.42)"/><path class="cls-2" d="M93.72,19.73,81.48,38.49h-.2L69,19.78V48.1h-3.7v-35h3.84L81.43,32.19,93.68,13.07h3.84v35h-3.8Z" transform="translate(-8.87 -6.42)"/><path class="cls-2" d="M133.45,42.55a21.73,21.73,0,0,1-6,4.6A16.6,16.6,0,0,1,120,48.7a15.71,15.71,0,0,1-12.06-5.2,18.26,18.26,0,0,1-4.8-12.86A18.41,18.41,0,0,1,108,17.75a15.77,15.77,0,0,1,12.17-5.28,17.16,17.16,0,0,1,7.3,1.41A20.55,20.55,0,0,1,133.26,18l-2.6,2.9q-4.84-4.8-10.57-4.8a12,12,0,0,0-9.29,4.12,14.81,14.81,0,0,0-3.72,10.29,15,15,0,0,0,3.74,10.33,12,12,0,0,0,9.27,4.18,12.79,12.79,0,0,0,5.77-1.25A20.87,20.87,0,0,0,131,40Z" transform="translate(-8.87 -6.42)"/><path class="cls-2" d="M153.19,28.39l15,19.71h-4.75l-12.92-17-7.16,7.55V48.1H139.6v-35h3.79V34L162.7,13.07h4.9Z" transform="translate(-8.87 -6.42)"/><path class="cls-2" d="M198.39,41.14V13.07h3.7v35h-3L177.35,19.38V48.1h-3.7v-35h3.56Z" transform="translate(-8.87 -6.42)"/><path class="cls-2" d="M225.48,34.19V48.1h-3.84V34.24l-14-21.17h4.61l11.34,17.52L235,13.07h4.42Z" transform="translate(-8.87 -6.42)"/><path class="cls-3" d="M18.73,37a.9.9,0,0,1-.9-.9V24.46a.9.9,0,0,1,1.43-.73l10.18,7.42,10.18-7.63a.89.89,0,0,1,.94-.09.91.91,0,0,1,.5.79l.22,11.61a.9.9,0,0,1-1.8,0L39.3,26,30,33a.9.9,0,0,1-1.07,0l-9.29-6.77v9.84A.9.9,0,0,1,18.73,37Z" transform="translate(-8.87 -6.42)"/><path class="cls-4" d="M23.37,21.55a.87.87,0,0,1-.72-.36.9.9,0,0,1,.18-1.26l6.3-4.72a.9.9,0,0,1,1.07,0l6.38,4.65a.9.9,0,1,1-1.06,1.46L29.68,17l-5.77,4.33A.94.94,0,0,1,23.37,21.55Z" transform="translate(-8.87 -6.42)"/><path class="cls-4" d="M29.75,45a.86.86,0,0,1-.53-.17l-6.38-4.65a.9.9,0,1,1,1.06-1.46L29.74,43l5.77-4.32a.9.9,0,1,1,1.08,1.44l-6.3,4.72A.9.9,0,0,1,29.75,45Z" transform="translate(-8.87 -6.42)"/><path class="cls-3" d="M49.76,17.93,30,6.54a1,1,0,0,0-1,0L9.36,17.93a1,1,0,0,0-.49.84V41.53a1,1,0,0,0,.49.85L29.07,53.76a1.05,1.05,0,0,0,.49.13,1,1,0,0,0,.48-.13L49.76,42.38a1,1,0,0,0,.49-.85V18.77A1,1,0,0,0,49.76,17.93Zm-1.46,1.4V41L29.56,51.79,10.82,41V19.33L29.56,8.51Z" transform="translate(-8.87 -6.42)"/></svg>